<?xml version="1.0" encoding="utf-8"?>
<!-- Generator: Adobe Illustrator 27.5.0, SVG Export Plug-In . SVG Version: 6.00 Build 0)  -->
<svg version="1.1" xmlns="http://www.w3.org/2000/svg" xmlns:xlink="http://www.w3.org/1999/xlink" x="0px" y="0px"
	 viewBox="0 0 500 500" style="enable-background:new 0 0 500 500;" xml:space="preserve">
<g id="BACKGROUND">
	<rect style="fill:#FFFFFF;" width="500" height="500"/>
</g>
<g id="OBJECTS">
	<path d="M392.998,294.967c-6.309-5.436-12.856-10.416-19.597-14.901c-24.138,138.306-222.663,138.306-246.802,0
		c-6.741,4.485-13.288,9.465-19.597,14.901c-8.061-1.774-16.149-4.179-24.21-7.256c32.707,187.403,301.708,187.403,334.415,0
		C409.147,290.788,401.059,293.193,392.998,294.967z M110.353,317.066c-2.693,0-4.876-2.183-4.876-4.876s2.183-4.876,4.876-4.876
		c2.693,0,4.876,2.183,4.876,4.876S113.046,317.066,110.353,317.066z M390.146,317.066c-2.693,0-4.876-2.183-4.876-4.876
		s2.183-4.876,4.876-4.876c2.693,0,4.876,2.183,4.876,4.876S392.839,317.066,390.146,317.066z"/>
	<g>
		<path d="M250.906,353.582l2.426,5.241c0.12,0.259,0.366,0.438,0.65,0.472l5.734,0.688c0.697,0.084,0.977,0.945,0.462,1.423
			l-4.235,3.927c-0.21,0.194-0.303,0.483-0.248,0.764l1.117,5.666c0.136,0.689-0.597,1.221-1.21,0.879l-5.044-2.814
			c-0.25-0.139-0.553-0.139-0.803,0l-5.044,2.814c-0.613,0.342-1.346-0.19-1.21-0.879l1.118-5.666
			c0.055-0.28-0.039-0.569-0.248-0.764l-4.235-3.927c-0.515-0.478-0.235-1.339,0.462-1.423l5.734-0.688
			c0.284-0.034,0.53-0.213,0.65-0.472l2.426-5.241C249.705,352.944,250.611,352.944,250.906,353.582z"/>
		<path d="M279.276,353.444l1.728,3.732c0.085,0.185,0.261,0.312,0.463,0.336l4.083,0.49c0.497,0.06,0.696,0.673,0.329,1.013
			l-3.015,2.797c-0.149,0.138-0.216,0.344-0.177,0.544l0.796,4.035c0.097,0.491-0.425,0.87-0.862,0.626l-3.592-2.004
			c-0.178-0.099-0.394-0.099-0.572,0l-3.592,2.004c-0.437,0.244-0.959-0.136-0.862-0.626l0.796-4.035
			c0.039-0.2-0.027-0.406-0.177-0.544l-3.016-2.797c-0.367-0.34-0.167-0.954,0.329-1.013l4.083-0.49
			c0.202-0.024,0.377-0.151,0.463-0.336l1.728-3.732C278.421,352.99,279.066,352.99,279.276,353.444z"/>
		<path d="M221.789,353.444l1.728,3.732c0.086,0.185,0.261,0.312,0.463,0.336l4.083,0.49c0.497,0.06,0.696,0.673,0.329,1.013
			l-3.016,2.797c-0.149,0.138-0.216,0.344-0.177,0.544l0.796,4.035c0.097,0.491-0.425,0.87-0.862,0.626l-3.592-2.004
			c-0.178-0.099-0.394-0.099-0.572,0l-3.592,2.004c-0.437,0.244-0.959-0.136-0.862-0.626l0.796-4.035
			c0.039-0.2-0.027-0.406-0.177-0.544l-3.016-2.797c-0.367-0.34-0.167-0.954,0.329-1.013l4.083-0.49
			c0.202-0.024,0.377-0.151,0.463-0.336l1.728-3.732C220.934,352.99,221.579,352.99,221.789,353.444z"/>
	</g>
	<g>
		<path d="M187.791,103.623l18.393-17.882c0,0-13.159,0.383-21.457-3.702c-8.298-4.085-25.298-15.702-29.553-12.83
			c-2.9,1.958-4.404,8.94,6,20.043C169.727,98.379,180.507,102.433,187.791,103.623z"/>
		<path d="M312.106,103.623l-18.393-17.882c0,0,13.159,0.383,21.457-3.702c8.298-4.085,25.298-15.702,29.553-12.83
			c2.9,1.958,4.404,8.94-6,20.043C330.17,98.379,319.391,102.433,312.106,103.623z"/>
		<path d="M281.343,301.646c0.822-1.409,1.724-4.158,1.934-5.194c0.237-1.172,0.416-2.356,0.569-3.543
			c0.159-1.233-0.292-2.746-1.511-3.248c-1.31-0.539-2.761,0.147-3.972,2.184c-1.256,2.111-2.223,4.433-3.95,6.195
			c-1.031,1.052-2.347,1.759-3.774,1.946c-1.655,0.217-3.573,0.137-5.121,0.967c-1.77,0.949-2.408,2.641-2.085,4.619
			c0.453,2.774,4.186,3.289,7.687,2.809C275.078,307.839,279.163,305.382,281.343,301.646z"/>
		<path d="M218.28,301.646c-0.822-1.409-1.724-4.158-1.934-5.194c-0.238-1.172-0.416-2.356-0.569-3.543
			c-0.159-1.233,0.292-2.746,1.511-3.248c1.31-0.539,2.761,0.147,3.972,2.184c1.256,2.111,2.223,4.433,3.95,6.195
			c1.031,1.052,2.347,1.759,3.774,1.946c1.655,0.217,3.573,0.137,5.121,0.967c1.77,0.949,2.408,2.641,2.085,4.619
			c-0.453,2.774-4.186,3.289-7.687,2.809C224.545,307.839,220.46,305.382,218.28,301.646z"/>
		<path d="M384.692,116.326l-19.273-6.291c-8.084-2.639-16.923-1.416-24.004,3.294c-6.779,4.509-14.878,9.272-18.306,8.86
			c-2.932-0.352-4.996-2.692-6.371-5.124c-2.857-5.053-6.264-9.774-10.409-13.839l-15.126-14.832
			c-2.716-2.663-5.961-4.726-9.539-6.018c-6.645-2.4-18.342-5.767-31.664-5.767c-13.322,0-25.019,3.367-31.664,5.767
			c-3.577,1.292-6.823,3.354-9.539,6.018l-15.126,14.832c-4.145,4.064-7.552,8.786-10.409,13.839
			c-1.375,2.432-3.439,4.772-6.371,5.124c-3.428,0.411-11.527-4.351-18.306-8.86c-7.08-4.71-15.92-5.933-24.004-3.294l-19.273,6.291
			c-7.729,2.523-11.95,10.953-9.138,18.582c1.906,5.172,5.146,11.475,10.617,18.537c9.49,12.246,20.678,17.35,27.715,19.453
			c3.968,1.186,8.246,0.635,11.783-1.519l17.335-10.444l3.354-23.255l2.539-0.17l-1.143,26.812c-0.086,2.027,0.57,4.015,1.847,5.592
			l0.913,1.128l2.213,31.295c0.111,1.573,0.667,3.081,1.602,4.351l3.334,4.525c0,0-2.213,19.574,3.915,38.809
			c6.128,19.234,14.22,26.411,12.028,46.047c-2.191,19.636-5.007,22.366-0.156,29.5c4.851,7.134,16.139,4.453,20.899,7.389
			c4.76,2.936,10.327,9.447,25.033,9.447s20.273-6.511,25.033-9.447c4.76-2.936,16.048-0.255,20.899-7.389
			c4.851-7.134,2.035-9.864-0.156-29.5c-2.191-19.636,5.901-26.813,12.028-46.047c6.128-19.234,3.915-38.809,3.915-38.809
			l3.334-4.525c0.935-1.269,1.491-2.778,1.602-4.351l2.213-31.295l0.913-1.128c1.276-1.577,1.933-3.565,1.847-5.592l-1.143-26.812
			l2.539,0.17l2.805,25.489l17.885,8.21c3.537,2.154,7.815,2.705,11.783,1.519c7.037-2.104,18.225-7.207,27.715-19.453
			c5.472-7.061,8.712-13.365,10.617-18.537C396.642,127.279,392.421,118.849,384.692,116.326z M176.815,131.773
			c-0.563,1.873-2.604,1.972-4.142,2.838c-2.51,1.414-3.162,4.414-4.733,6.541c-1.414,1.913-3.44,3.763-5.928,4.385
			c-6.176,1.543-10.555-3.811-12.257-8.512c-1.891-5.224-1.303-11.446-5.625-15.735c-4.679-4.644-11.642-2.275-17.033-0.228
			c-2.997,1.138-5.983,2.163-9.231,2.467c-1.036,0.097-1.88,0.378-2.809-0.189c-0.969-0.592-1.319-1.755-0.702-2.617
			c0.662-0.925,1.635-1.421,2.729-1.754c3.799-1.156,11.425-3.605,14.664-4.533c3.015-0.864,6.513-1.801,9.721-1.76
			c2.568,0.033,5.148,0.776,7.276,2.099c4.703,2.923,6.341,8.909,12.04,10.681c3.404,1.058,7.135,0.231,10.634,0.803
			C174.269,126.724,177.769,128.598,176.815,131.773z M190.664,176.872c-0.329,0.766-2.696,5.91-1.62,13.349
			c0.119,0.825-0.861,0.648-1.262-0.067c-0.401-0.714-2.54-3.97-2.025-8.42c0.477-4.128,3.38-5.301,3.897-5.551
			C190.17,175.934,190.993,176.106,190.664,176.872z M194.413,184.496c-0.947,0-1.714-0.767-1.714-1.714s0.767-1.714,1.714-1.714
			s1.714,0.768,1.714,1.714S195.359,184.496,194.413,184.496z M205.25,194.732l-2.582,3.958l-2.848,0.683
			c3.437-7.467,0.801-15.182,0.672-15.753c-0.129-0.571,0.54-0.769,0.805-0.118c0.207,0.509,2.933,6.412,4.118,8.973
			C205.752,193.206,205.69,194.059,205.25,194.732z M278.085,326.078c-10.213-0.526-27.932-1.93-27.932-1.93H250
			c0,0-17.72,1.404-27.932,1.93c-10.213,0.526-15.447-2.44-15.575-9.665c-0.092-20.076,9.728-34.022,15.245-40.267
			c2.526-2.859,4.316-6.285,5.268-9.979l3.604-13.974l8.001-15.719c1.46-2.868,2.19-6.051,2.125-9.268l-0.355-17.756
			c-0.038-1.907-0.355-3.798-0.94-5.614l-20.397-63.262c-1.688-5.235-4.226-10.152-7.511-14.564
			c-3.194-4.29-6.991-9.509-8.258-11.736c-2.324-4.087-1.25-5.87-0.484-6.918c0.766-1.048,4.213-2.144,6.938,1.608
			c10.36,14.899,18.878,17.687,23.493,17.851c1.373,0.049,1.989-1.665,0.915-2.521c-13.676-10.904-6.783-27.586-6.783-27.586
			c0.268,5.688,3.33,8.612,5.646,10.019c0.898,0.546,1.971-0.29,1.683-1.301c-2.62-9.18,4.622-14.983,4.622-14.983
			c3.603,5.317,10.017,7.935,10.772,8.23c0.755-0.295,7.17-2.913,10.772-8.23c1.696,2.553,1.508,5.218,0.969,7.143
			c-0.31,1.108,0.957,1.983,1.9,1.324c5.592-3.912,6.35-12.718,6.35-12.718c6.172,8.195,3.042,16.792,1.478,20.006
			c-0.292,0.6,0.187,1.302,0.85,1.225c7.937-0.921,10.311-8.72,10.311-8.72c0.663,7.867-1.347,12.285-2.427,14.04
			c-0.287,0.466,0.012,1.069,0.556,1.131c2.012,0.23,6.193-0.007,9.59-4.908c2.725-3.752,6.172-2.656,6.937-1.608
			c0.766,1.048,1.84,2.831-0.484,6.918c-1.281,2.252-5.152,7.567-8.369,11.885c-3.213,4.312-5.693,9.12-7.343,14.239l-20.453,63.438
			c-0.585,1.815-0.902,3.707-0.94,5.614l-0.355,17.756c-0.064,3.217,0.666,6.401,2.125,9.268l8.001,15.719l3.604,13.974
			c0.953,3.694,2.742,7.12,5.268,9.979c5.517,6.245,15.337,20.191,15.245,40.267C293.532,323.637,288.298,326.603,278.085,326.078z
			 M297.612,198.69l-2.582-3.958c-0.44-0.674-0.502-1.527-0.164-2.257c1.184-2.561,3.911-8.464,4.118-8.973
			c0.265-0.651,0.934-0.454,0.805,0.118c-0.129,0.571-2.765,8.286,0.672,15.753L297.612,198.69z M305.867,184.496
			c-0.947,0-1.714-0.767-1.714-1.714s0.768-1.714,1.714-1.714c0.947,0,1.714,0.768,1.714,1.714S306.814,184.496,305.867,184.496z
			 M312.499,190.154c-0.401,0.715-1.382,0.892-1.263,0.067c1.076-7.44-1.291-12.583-1.62-13.349
			c-0.329-0.766,0.494-0.938,1.01-0.688c0.517,0.25,3.42,1.423,3.897,5.551C315.038,186.185,312.9,189.44,312.499,190.154z
			 M384.422,123.339c-0.929,0.568-1.773,0.286-2.809,0.189c-3.248-0.304-6.235-1.33-9.232-2.467
			c-5.39-2.047-12.353-4.416-17.033,0.228c-4.322,4.289-3.734,10.511-5.625,15.735c-1.702,4.701-6.081,10.055-12.257,8.512
			c-2.487-0.622-4.514-2.471-5.927-4.385c-1.571-2.127-2.223-5.126-4.733-6.541c-1.538-0.866-3.579-0.965-4.142-2.838
			c-0.954-3.175,2.546-5.049,5.396-5.515c3.499-0.572,7.231,0.255,10.634-0.803c5.699-1.772,7.337-7.758,12.04-10.681
			c2.128-1.323,4.707-2.066,7.276-2.099c3.207-0.042,6.705,0.896,9.721,1.76c3.24,0.928,10.865,3.377,14.664,4.533
			c1.094,0.333,2.067,0.829,2.729,1.754C385.741,121.584,385.391,122.747,384.422,123.339z"/>
	</g>
</g>
<g id="TEXTS">
	<g>
		<g>
			<path d="M146.901,298.487v-1.068l1.382-0.237v-9.729l-1.382-0.237v-1.077h9.143v2.969h-1.34l-0.187-1.68h-4.563v4.021h4.554
				v1.314h-4.554v4.47h4.834l0.187-1.705h1.332v2.96H146.901z"/>
			<path d="M164.166,298.664c-0.752,0-1.476-0.11-2.171-0.33c-0.695-0.221-1.36-0.561-1.993-1.018v-2.638h1.298l0.28,1.941
				c0.368,0.227,0.766,0.402,1.196,0.526s0.894,0.187,1.391,0.187c0.565,0,1.044-0.086,1.438-0.259
				c0.393-0.173,0.694-0.411,0.903-0.717c0.209-0.305,0.313-0.661,0.313-1.068c0-0.379-0.09-0.713-0.271-1.001
				c-0.181-0.288-0.479-0.541-0.895-0.759s-0.982-0.408-1.701-0.572c-0.848-0.198-1.564-0.463-2.15-0.793
				c-0.585-0.331-1.029-0.732-1.332-1.205c-0.302-0.472-0.454-1.013-0.454-1.624c0-0.645,0.171-1.221,0.513-1.729
				c0.342-0.509,0.818-0.91,1.429-1.205c0.61-0.293,1.323-0.44,2.137-0.44c0.865,0,1.629,0.132,2.294,0.395s1.211,0.581,1.641,0.954
				v2.468h-1.297l-0.28-1.764c-0.254-0.204-0.571-0.374-0.95-0.51c-0.379-0.135-0.848-0.203-1.408-0.203
				c-0.475,0-0.894,0.084-1.255,0.25c-0.362,0.167-0.645,0.4-0.848,0.7s-0.305,0.652-0.305,1.06c0,0.356,0.092,0.668,0.275,0.934
				c0.184,0.266,0.483,0.499,0.899,0.699c0.416,0.201,0.971,0.389,1.667,0.564c1.3,0.322,2.286,0.798,2.956,1.429
				s1.005,1.409,1.005,2.337c0,0.661-0.178,1.248-0.534,1.76c-0.356,0.512-0.858,0.911-1.505,1.199
				C165.805,298.521,165.042,298.664,164.166,298.664z"/>
			<path d="M174.724,298.487v-1.068l1.383-0.237v-9.779h-2.799l-0.246,1.714h-1.255v-2.978h10.262v2.978h-1.238l-0.254-1.714h-2.799
				v9.779l1.382,0.237v1.068H174.724z"/>
			<path d="M185.883,298.487v-1.713h1.67v1.713H185.883z"/>
		</g>
	</g>
	<g>
		<g>
			<path d="M311.037,298.487v-1.068l1.908-0.237v-9.253l-1.942,0.033v-1.043l3.613-0.78v11.043l1.899,0.237v1.068H311.037z"/>
			<path d="M323.239,298.664c-0.43,0-0.869-0.041-1.319-0.123c-0.449-0.081-0.852-0.207-1.208-0.377l0.254-1.264
				c0.345,0.164,0.697,0.281,1.057,0.352c0.358,0.071,0.765,0.106,1.217,0.106c0.803,0,1.438-0.307,1.903-0.92
				c0.467-0.613,0.709-1.602,0.726-2.965l-0.034-0.042c-0.226,0.379-0.543,0.67-0.949,0.874c-0.407,0.203-0.865,0.305-1.374,0.305
				c-0.803,0-1.496-0.167-2.078-0.5c-0.582-0.334-1.03-0.817-1.345-1.45c-0.313-0.634-0.47-1.399-0.47-2.299
				c0-0.859,0.171-1.62,0.513-2.281s0.803-1.18,1.383-1.557c0.579-0.376,1.222-0.563,1.929-0.563c0.859,0,1.601,0.18,2.223,0.538
				c0.621,0.359,1.101,0.894,1.438,1.604c0.336,0.709,0.504,1.59,0.504,2.642v2.23c0,1.283-0.181,2.347-0.542,3.188
				c-0.362,0.843-0.87,1.471-1.522,1.883C324.889,298.458,324.121,298.664,323.239,298.664z M323.511,293.296
				c0.616,0,1.129-0.133,1.539-0.398s0.705-0.605,0.887-1.018v-1.307c0-1.091-0.208-1.913-0.624-2.468
				c-0.415-0.554-1.021-0.831-1.819-0.831c-0.412,0-0.785,0.132-1.119,0.395s-0.598,0.626-0.793,1.09s-0.293,0.998-0.293,1.603
				c0,0.594,0.09,1.11,0.268,1.548c0.178,0.438,0.434,0.779,0.768,1.022C322.656,293.175,323.053,293.296,323.511,293.296z"/>
			<path d="M333.457,298.487l0.136-1.331c0.158-1.301,0.416-2.502,0.772-3.604c0.355-1.103,0.816-2.151,1.382-3.146
				s1.244-1.979,2.036-2.952h-5.157l-0.127,1.417h-1.425v-2.731h8.346v1.314c-0.747,0.888-1.363,1.712-1.85,2.473
				s-0.877,1.51-1.174,2.247c-0.297,0.738-0.53,1.509-0.7,2.312s-0.313,1.693-0.433,2.672l-0.136,1.331H333.457z"/>
			<path d="M346.94,298.664c-0.803,0-1.52-0.196-2.149-0.589c-0.631-0.394-1.127-0.966-1.488-1.718
				c-0.362-0.752-0.543-1.662-0.543-2.73v-1.662c0-1.307,0.196-2.405,0.589-3.295c0.394-0.891,0.937-1.565,1.629-2.023
				s1.488-0.687,2.388-0.687c0.418,0,0.835,0.048,1.251,0.145c0.415,0.096,0.759,0.217,1.03,0.364l-0.322,1.247
				c-0.267-0.131-0.558-0.236-0.874-0.318s-0.679-0.123-1.085-0.123c-0.865,0-1.554,0.326-2.065,0.979s-0.784,1.639-0.818,2.956
				l0.034,0.033c0.316-0.294,0.703-0.526,1.161-0.699s0.953-0.259,1.484-0.259c0.735,0,1.374,0.174,1.917,0.521
				s0.963,0.827,1.259,1.438c0.297,0.61,0.445,1.307,0.445,2.087c0,0.854-0.158,1.605-0.475,2.256s-0.764,1.159-1.34,1.526
				C348.391,298.481,347.715,298.664,346.94,298.664z M346.94,297.359c0.458,0,0.849-0.133,1.171-0.398s0.569-0.628,0.742-1.086
				c0.172-0.458,0.259-0.973,0.259-1.543c0-0.814-0.205-1.484-0.615-2.011c-0.41-0.525-0.977-0.788-1.7-0.788
				c-0.379,0-0.723,0.052-1.03,0.156c-0.309,0.105-0.574,0.252-0.798,0.441s-0.405,0.411-0.547,0.666v0.992
				c0,1.147,0.239,2.029,0.717,2.646S346.217,297.359,346.94,297.359z"/>
		</g>
	</g>
	<g>
		<g>
			<path style="fill:#FFFFFF;" d="M109.48,342.657l2.144-1.485l2.398,2.443l19.517-13.524l-1.446-3.104l2.161-1.497l1.922,2.773
				l2.323,3.352l1.922,2.773l-2.161,1.498l-2.398-2.443l-19.568,13.56l6.072,8.763l4.185-2.32l1.78,2.569l-6.483,4.492
				L109.48,342.657z"/>
			<path style="fill:#FFFFFF;" d="M132.178,371.898l1.82-1.868l2.822,1.938l16.566-17.011l-2.013-2.77l1.834-1.883l7.756,7.554
				l-1.834,1.883l-2.822-1.938l-16.566,17.011l2.013,2.77l-1.82,1.868L132.178,371.898z"/>
			<path style="fill:#FFFFFF;" d="M162.139,396.375l5.824-28.407l-1.862-1.553l1.392-2.229l8.078,5.042l-1.392,2.23l-2.566-1.089
				l-4.426,19.834l-0.664,2.393l0.105,0.065l1.893-1.624l16.097-12.574l-2.379-1.974l1.392-2.23l8.061,5.032l-1.393,2.23
				l-2.23-1.002l-22.963,17.708L162.139,396.375z"/>
			<path style="fill:#FFFFFF;" d="M190.769,411.378l0.764-2.494l3.396,0.435l6.956-22.703l-3.057-1.543l0.77-2.514l21.337,6.537
				l-2.123,6.928l-3.127-0.958l0.765-4.053l-10.649-3.263l-2.875,9.383l10.629,3.256l-0.94,3.068l-10.629-3.257l-3.195,10.432
				l11.282,3.456l1.654-3.845l3.107,0.952l-2.116,6.907L190.769,411.378z"/>
			<path style="fill:#FFFFFF;" d="M240.295,422.139c-1.833-0.108-3.58-0.48-5.243-1.117s-3.233-1.559-4.71-2.766l0.378-6.427
				l3.162,0.186l0.403,4.772c0.863,0.604,1.809,1.088,2.838,1.453c1.029,0.364,2.15,0.582,3.363,0.653
				c1.377,0.081,2.557-0.06,3.54-0.424c0.982-0.363,1.75-0.902,2.304-1.617c0.553-0.714,0.859-1.566,0.918-2.559
				c0.054-0.923-0.119-1.749-0.518-2.478s-1.09-1.388-2.071-1.978s-2.335-1.136-4.062-1.639c-2.038-0.604-3.747-1.351-5.125-2.24
				c-1.378-0.891-2.403-1.932-3.072-3.126c-0.669-1.193-0.96-2.534-0.873-4.022c0.093-1.57,0.592-2.951,1.499-4.142
				c0.906-1.191,2.125-2.102,3.655-2.73c1.53-0.628,3.287-0.885,5.271-0.768c2.108,0.124,3.952,0.554,5.534,1.289
				c1.581,0.736,2.868,1.59,3.862,2.561l-0.354,6.014l-3.162-0.186l-0.429-4.339c-0.591-0.532-1.338-0.991-2.242-1.376
				c-0.903-0.385-2.037-0.618-3.401-0.698c-1.158-0.067-2.189,0.075-3.095,0.43c-0.906,0.354-1.628,0.883-2.167,1.584
				c-0.539,0.701-0.837,1.547-0.896,2.539c-0.051,0.868,0.128,1.639,0.538,2.313s1.106,1.285,2.09,1.834s2.311,1.087,3.98,1.613
				c3.123,0.972,5.455,2.273,6.997,3.906c1.542,1.632,2.247,3.578,2.114,5.837c-0.095,1.612-0.613,3.016-1.554,4.212
				c-0.941,1.195-2.221,2.099-3.84,2.708C244.308,422.023,242.431,422.264,240.295,422.139z"/>
			<path style="fill:#FFFFFF;" d="M274.688,420.224l-0.477-2.564l3.211-1.187l-4.362-23.467l-6.717,1.249l0.175,4.221l-3.013,0.561
				l-1.328-7.145l24.627-4.578l1.328,7.144l-2.972,0.553l-1.375-3.998l-6.716,1.249l4.362,23.467l3.424-0.047l0.477,2.564
				L274.688,420.224z"/>
			<path style="fill:#FFFFFF;" d="M319.84,406.824c-1.76,0.831-3.498,1.24-5.214,1.226c-1.716-0.014-3.354-0.403-4.914-1.17
				c-1.56-0.767-2.997-1.87-4.311-3.311c-1.313-1.439-2.45-3.177-3.411-5.211l-0.186-0.394c-0.954-2.021-1.572-4-1.853-5.936
				c-0.281-1.936-0.224-3.752,0.173-5.45s1.134-3.214,2.214-4.548c1.079-1.334,2.498-2.417,4.258-3.248
				c1.859-0.878,3.653-1.313,5.382-1.305s3.362,0.403,4.9,1.188c1.538,0.784,2.949,1.907,4.234,3.368
				c1.285,1.462,2.405,3.203,3.36,5.225l0.186,0.393c0.961,2.034,1.596,4.009,1.904,5.924c0.309,1.914,0.276,3.712-0.098,5.392
				s-1.107,3.189-2.199,4.529C323.175,404.837,321.699,405.946,319.84,406.824z M318.39,403.754c1.81-0.854,3.061-1.995,3.753-3.421
				s0.92-3.071,0.681-4.935s-0.862-3.862-1.87-5.996l-0.204-0.431c-1.001-2.121-2.146-3.858-3.434-5.212
				c-1.288-1.353-2.707-2.217-4.258-2.592c-1.55-0.374-3.218-0.14-5.002,0.703c-1.635,0.772-2.805,1.882-3.511,3.329
				c-0.705,1.447-0.973,3.111-0.802,4.991c0.171,1.881,0.755,3.876,1.75,5.984l0.204,0.431c1.002,2.122,2.177,3.853,3.527,5.191
				c1.35,1.339,2.806,2.192,4.368,2.562C315.156,404.728,316.755,404.526,318.39,403.754z"/>
			<path style="fill:#FFFFFF;" d="M355.434,383.985c-2.335,1.92-4.704,3.01-7.107,3.271s-4.728-0.178-6.976-1.313
				c-2.247-1.136-4.3-2.834-6.157-5.095l-0.276-0.336c-1.876-2.281-3.133-4.646-3.771-7.097c-0.639-2.449-0.61-4.817,0.083-7.103
				c0.694-2.286,2.106-4.305,4.239-6.058c1.503-1.236,3.071-2.132,4.704-2.688s3.157-0.81,4.574-0.76l4.128,5.021l-2.51,2.063
				l-3.36-3.401c-0.56,0.015-1.136,0.112-1.728,0.295c-0.591,0.183-1.195,0.447-1.813,0.794s-1.24,0.778-1.869,1.295
				c-1.524,1.254-2.492,2.706-2.903,4.357c-0.412,1.651-0.324,3.388,0.263,5.21s1.621,3.634,3.103,5.436l0.303,0.368
				c1.604,1.951,3.264,3.378,4.979,4.28c1.716,0.903,3.429,1.259,5.14,1.068c1.71-0.191,3.364-0.944,4.963-2.259
				c0.746-0.613,1.402-1.305,1.968-2.073c0.565-0.768,0.964-1.489,1.196-2.162l-2.317-3.536l2.463-2.024l4.154,5.054
				c-0.427,1.262-1.123,2.545-2.089,3.848S356.723,382.924,355.434,383.985z"/>
			<path style="fill:#FFFFFF;" d="M374.263,365.555l-2.113-1.529l1.51-3.073l-19.234-13.924l-2.448,2.394l-2.13-1.541l6.35-8.771
				l2.129,1.542l-1.509,3.073l19.233,13.923l2.448-2.394l2.113,1.53L374.263,365.555z M371.403,354.643l-3.32,0.279l-4.474-20.897
				l-0.036-0.128l-1.558,1.658l-2.13-1.542l5.669-7.831l2.13,1.542l-1.244,2.601L371.403,354.643z M384.702,351.134l-2.113-1.529
				l1.223-2.183l-0.029,0.005l-14.266-0.028l-1.264-3.726l18.19-0.274l2.045-1.944l2.113,1.53L384.702,351.134z"/>
		</g>
	</g>
</g>
</svg>
